<svg xmlns="http://www.w3.org/2000/svg" viewBox="0 0 1600 900" opacity=".6"><path fill="#303" d="M0 0h1600v900H0z"/><path fill="#404" d="M957 450 539 900h857z"/><path fill="#7a105e" d="m957 450-84.1 450H1396z"/><path fill="#480048" d="m-60 900 458-238 418 238z"/><path fill="#8c0f77" d="m337 900 61-238 418 238z"/><path fill="#4b004b" d="m1203 546 349 354H876z"/><path fill="#9b0d8c" d="m1203 546 349 354h-390z"/><path fill="#4f004f" d="m641 695 245 205H367z"/><path fill="#aa0b9e" d="m587 900 54-205 245 205z"/><path fill="#520052" d="m1710 900-309-268-305 268z"/><path fill="#b709ae" d="m1710 900-309-268-36 268z"/><path fill="#505" d="M1210 900 971 687 725 900z"/><path fill="#c306bd" d="M943 900h267L971 687z"/></svg>